# xmcd
#
# Track frame offsets:
#	150
#	16707
#	40300
#	58087
#	76824
#	94852
#	113995
#	135283
#	150730
#	167285
#	185136
#	199507
#	217339
#	234651
#	251464
#	268956
#	287069
#	302805
#	326235
#
# Disc length: 4580 seconds
#
# Revision: 1
# Processed by: cddbd v1.5.2PL0 Copyright (c) Steve Scherf et al.
# Submitted via: dBpowerAMP V4.0
#
DISCID=0f11e213
DTITLE=Various Artist - ERG Nu Urban Traxx Vol. 216 CAN
DYEAR=2015
DGENRE=Urban
TTITLE0=Rihanna - B Better Have My Money
TTITLE1=Kanye West ft. Theophilus London, Allan Kingdom and Paul McCartney - All Day
TTITLE2=Kendrick Lamar - King Kunta
TTITLE3=Snoop Dogg ft. Charlie Wilson - Peaches'n'Cream
TTITLE4=K. Michelle - Hard To Do
TTITLE5=Wale ft. Usher - The Matrimony
TTITLE6=Migos - One Time
TTITLE7=Anthony Lewis ft.T.I. - It's Not My Fault
TTITLE8=Chedda Da Connect - Flicka Da Wrist
TTITLE9=Jamie Foxx ft. Chris Brown - You Changed Me
TTITLE10=Tink - Ratchet Commandments
TTITLE11=Future - Commas
TTITLE12=Wiz Khalifa ft. Charlie Puth - See You Again
TTITLE13=Jazmine Sullivan - Let It Burn
TTITLE14=Baby Blue ft. Chance The Rapper - Action Bronson
TTITLE15=J. Cole - Wet Dreamz
TTITLE16=Kenny Lattimore - Love Me Back
TTITLE17=Calvin Richardson - Hearsay
TTITLE18=Ne-Yo - Religious
EXTD=
EXTT0=
EXTT1=
EXTT2=
EXTT3=
EXTT4=
EXTT5=
EXTT6=
EXTT7=
EXTT8=
EXTT9=
EXTT10=
EXTT11=
EXTT12=
EXTT13=
EXTT14=
EXTT15=
EXTT16=
EXTT17=
EXTT18=
PLAYORDER=
